<!--?xml version="1.0" standalone="no"?-->
              <svg id="sw-js-blob-svg" viewBox="0 0 100 100" xmlns="http://www.w3.org/2000/svg" version="1.1">
                    <defs> 
                        <linearGradient id="sw-gradient" x1="0" x2="1" y1="1" y2="0">
                            <stop id="stop1" stop-color="rgba(209.203, 193.294, 208.189, 1)" offset="0%"></stop>
                            <stop id="stop2" stop-color="rgba(255, 0, 248.821, 1)" offset="100%"></stop>
                        </linearGradient>
                    </defs>
                <path fill="url(#sw-gradient)" d="M20.9,-33.8C26.1,-29.2,28.6,-21.7,29,-15C29.3,-8.2,27.5,-2.3,26.9,4C26.2,10.3,26.7,16.9,24.1,21.9C21.4,26.9,15.7,30.3,9.9,30.4C4.2,30.5,-1.5,27.5,-8.9,26.8C-16.3,26.2,-25.4,28,-28.9,24.7C-32.3,21.3,-30.1,12.6,-31.8,4.3C-33.5,-4.1,-39,-12.2,-38.3,-19.1C-37.7,-26,-30.8,-31.7,-23.4,-35.2C-16,-38.8,-8,-40.2,-0.1,-40.1C7.9,-40,15.7,-38.4,20.9,-33.8Z" width="100%" height="100%" transform="translate(50 50)" stroke-width="0" style="transition: 0.3s;" stroke="url(#sw-gradient)"></path>
              </svg>