<svg id="visual" viewBox="0 0 900 600" width="900" height="600" xmlns="http://www.w3.org/2000/svg" xmlns:xlink="http://www.w3.org/1999/xlink" version="1.1"><path d="M0 405L21.5 421.8C43 438.7 86 472.3 128.8 471.7C171.7 471 214.3 436 257.2 436.5C300 437 343 473 385.8 473.7C428.7 474.3 471.3 439.7 514.2 424.3C557 409 600 413 642.8 410.3C685.7 407.7 728.3 398.3 771.2 394.5C814 390.7 857 392.3 878.5 393.2L900 394L900 601L878.5 601C857 601 814 601 771.2 601C728.3 601 685.7 601 642.8 601C600 601 557 601 514.2 601C471.3 601 428.7 601 385.8 601C343 601 300 601 257.2 601C214.3 601 171.7 601 128.8 601C86 601 43 601 21.5 601L0 601Z" fill="#FF0066" stroke-linecap="round" stroke-linejoin="miter"></path></svg>